<?xml version="1.0" encoding="UTF-8"?>
<svg width="400" height="400" viewBox="0 0 400 400" fill="none" xmlns="http://www.w3.org/2000/svg">
  <!-- Simple meditation illustration -->
  <circle cx="200" cy="200" r="150" fill="#F3F4F6"/>
  <path d="M200 150C213.807 150 225 138.807 225 125C225 111.193 213.807 100 200 100C186.193 100 175 111.193 175 125C175 138.807 186.193 150 200 150Z" fill="#4F46E5"/>
  <path d="M150 250C150 227.909 167.909 210 190 210H210C232.091 210 250 227.909 250 250V270C250 292.091 232.091 310 210 310H190C167.909 310 150 292.091 150 270V250Z" fill="#4F46E5"/>
  <path d="M175 125C175 111.193 186.193 100 200 100" stroke="#312E81" stroke-width="4" stroke-linecap="round"/>
</svg>